# xmcd
#
# Track frame offsets:
#	150
#	20405
#	39967
#	54784
#	71292
#	92199
#	110961
#	129978
#	150148
#	164160
#	175472
#	198864
#	214777
#	228683
#
# Disc length: 3269 seconds
#
# Revision: 1
# Processed by: cddbd v1.5.2PL0 Copyright (c) Steve Scherf et al.
# Submitted via: audiograbber 1.83.01
#
DISCID=b80cc30e
DTITLE=EMMERSON NOGUEIRA - AO VIVO
DYEAR=1900
DGENRE=
TTITLE0=IT'S RAINING AGAIN
TTITLE1=MRS. ROBINSON
TTITLE2=THE LOGICAL SONG
TTITLE3=ROSANA
TTITLE4=A HORSE WITH NO NAME-VENTURA HIGHWAY
TTITLE5=TEARS IN HEAVEN
TTITLE6=SAILING
TTITLE7=WISH YOU WERE HERE-BREATHE
TTITLE8=MONEY
TTITLE9=HAVE YIU EVER SEEN THE RAIN
TTITLE10=EVERY BREATH YOU TAKE
TTITLE11=GIVE A LITTLE BIT
TTITLE12=INSTRUMENTAL VIOLA
TTITLE13=BLOWIN IN THE WIND
EXTD=
EXTT0=
EXTT1=
EXTT2=
EXTT3=
EXTT4=
EXTT5=
EXTT6=
EXTT7=
EXTT8=
EXTT9=
EXTT10=
EXTT11=
EXTT12=
EXTT13=
PLAYORDER=
